<?xml version="1.0" encoding="utf-8"?>
<svg id="ccdb08d7-40f3-45f2-8ef6-c6a673654779" data-name="Layer 1" width="1167.61" height="862.87" viewBox="0 0 1167.61 862.87" xmlns="http://www.w3.org/2000/svg">
  <defs>
    <linearGradient id="cb66075b-2ebe-455c-893b-1def13a8d59c" x1="481.48" y1="854.12" x2="481.48" y2="276.47" gradientUnits="userSpaceOnUse" gradientTransform="matrix(0.652713, 0, 0, 0.662675, 187.11795, 80.604385)">
      <stop offset="0" stop-color="gray" stop-opacity="0.25"/>
      <stop offset="0.54" stop-color="gray" stop-opacity="0.12"/>
      <stop offset="1" stop-color="gray" stop-opacity="0.1"/>
    </linearGradient>
    <linearGradient id="b7415561-023b-44da-badb-9b3453976a8a" x1="878.34" y1="879.41" x2="878.34" y2="264.07" gradientUnits="userSpaceOnUse" gradientTransform="matrix(0.652713, 0, 0, 0.662675, 187.11795, 80.604385)">
      <stop offset="0" stop-color="gray" stop-opacity="0.25"/>
      <stop offset="0.54" stop-color="gray" stop-opacity="0.12"/>
      <stop offset="1" stop-color="gray" stop-opacity="0.1"/>
    </linearGradient>
  </defs>
  <title>doctors</title>
  <circle cx="551.746" cy="409.549" r="492.479" transform="matrix(0.871894, 0, 0, 0.767765, 72.685249, 113.341171)" style="fill: rgb(255, 255, 255);"/>
  <path d="M 247.409 317.02 L 313.647 317.02 L 313.647 408.688 L 252.253 408.688 C 252.096 409.635 251.939 410.577 251.764 411.524 L 313.647 411.524 L 313.647 485.439 C 313.542 485.439 313.438 485.359 313.34 485.32 C 311.599 484.617 309.859 483.873 308.119 483.087 C 307.747 482.915 307.381 482.735 307.002 482.57 C 305.262 481.734 303.521 480.851 301.78 479.919 C 301.174 479.594 300.567 479.256 299.972 478.911 C 290.31 473.437 281.527 466.497 273.929 458.329 C 273.701 458.11 273.492 457.872 273.277 457.666 C 272.219 456.5 271.182 455.32 270.176 454.114 C 269.798 453.671 269.432 453.22 269.06 452.789 C 267.872 451.318 266.723 449.794 265.614 448.263 C 265.444 448.031 265.288 447.805 265.124 447.6 C 260.579 441.214 256.809 434.294 253.897 426.991 C 253.806 426.773 253.722 426.534 253.636 426.328 C 252.736 424.009 251.92 421.657 251.215 419.258 C 250.915 418.257 250.621 417.27 250.373 416.229 C 250.282 415.931 250.21 415.626 250.132 415.328 C 246.463 400.65 246.039 385.395 246.039 370.213 C 246.039 368.446 246.039 366.679 246.039 364.912 C 246.091 358.713 246.163 352.522 246.254 346.337 C 246.289 344.746 246.322 343.149 246.352 341.546 C 246.443 337.486 246.574 333.417 246.744 329.339 C 246.783 328.213 246.835 327.08 246.894 325.959 C 246.92 325.31 246.953 324.66 246.992 324.011 C 247.109 321.665 247.248 319.335 247.409 317.02 Z" fill="#6c63ff" opacity="0.1"/>
  <path d="M 313.647 214.955 L 277.31 214.955 C 283.22 205.575 289.673 196.56 296.637 187.957 C 302.042 181.225 307.733 174.664 313.647 168.343 Z" fill="#6c63ff" opacity="0.1"/>
  <path d="M 313.647 217.778 L 313.647 314.184 L 247.619 314.184 C 247.619 313.905 247.658 313.62 247.683 313.342 C 247.742 312.58 247.801 311.825 247.866 311.063 C 247.932 310.175 248.016 309.287 248.101 308.412 C 248.186 307.537 248.271 306.477 248.375 305.516 C 248.48 304.555 248.565 303.581 248.669 302.62 C 248.774 301.659 248.878 300.698 248.995 299.744 C 249.113 298.79 249.218 297.822 249.348 296.868 C 249.446 296.08 249.544 295.284 249.655 294.489 C 249.805 293.369 249.962 292.249 250.125 291.136 C 250.125 290.964 250.177 290.798 250.203 290.633 C 251.396 282.483 253.017 274.405 255.059 266.431 C 257.204 258.068 259.941 249.874 263.251 241.912 C 266.767 233.57 270.887 225.503 275.574 217.778 Z" fill="#6c63ff" opacity="0.1"/>
  <path d="M 329.469 317.02 L 329.469 408.688 L 470.951 408.688 L 470.951 317.02 Z M 329.469 411.524 L 329.469 490.25 C 330.278 490.415 331.074 490.581 331.877 490.72 C 332.954 490.933 334.038 491.125 335.141 491.29 L 335.793 491.383 C 336.224 491.456 336.662 491.515 337.099 491.568 C 338.189 491.728 339.279 491.847 340.362 491.953 C 340.872 492.006 341.4 492.046 341.916 492.092 L 343.176 492.185 L 343.176 492.185 C 343.861 492.238 344.54 492.277 345.218 492.304 C 345.636 492.304 346.054 492.337 346.479 492.351 C 346.903 492.364 347.131 492.351 347.471 492.351 L 348.704 492.351 C 349.266 492.351 349.827 492.351 350.382 492.351 L 351.099 492.351 C 351.661 492.351 352.223 492.351 352.777 492.298 L 352.81 492.298 C 353.202 492.298 353.586 492.298 353.978 492.251 C 354.089 492.258 354.2 492.258 354.311 492.251 C 354.637 492.251 354.964 492.251 355.277 492.212 C 355.351 492.206 355.425 492.206 355.499 492.212 C 356.223 492.165 356.955 492.105 357.692 492.039 C 358.43 491.973 359.128 491.894 359.866 491.814 L 361.347 491.628 C 367.402 490.768 373.389 489.475 379.264 487.758 C 392.468 484.021 405.373 478.792 418.57 474.969 C 435.619 470.032 454.47 467.6 470.944 473.61 L 470.944 411.524 Z M 470.951 214.955 L 470.951 92.916 C 455.462 92.743 440.016 94.581 424.987 98.384 C 389.159 107.522 356.987 127.343 329.469 152.657 L 329.469 214.948 L 336.59 214.948 L 336.59 217.778 L 329.469 217.778 L 329.469 314.184 L 470.951 314.184 L 470.951 217.778 L 365.72 217.778 L 365.72 214.941 Z M 652.718 173.73 C 643.854 173.411 635.043 170.569 627.067 166.162 C 611.832 157.752 599.653 144.751 586.05 133.79 C 557.788 110.948 522.737 97.158 486.779 93.738 L 486.779 214.955 L 688.735 214.955 L 689.237 214.418 Z M 671.118 170.416 L 690.628 192.159 L 690.628 164.698 C 684.061 165.539 678.344 167.494 671.118 170.39 Z M 690.628 509.799 L 690.628 411.524 L 649.024 411.524 C 648.919 411.107 648.802 410.683 648.672 410.258 C 648.795 410.683 648.906 411.107 649.018 411.524 L 486.779 411.524 L 486.779 482.589 C 488.319 483.749 489.84 484.975 491.348 486.208 L 491.348 486.208 C 492.976 487.559 494.592 488.927 496.198 490.31 L 497.816 491.668 C 498.593 492.33 499.383 492.994 500.166 493.623 C 501.737 494.908 503.319 496.181 504.912 497.44 C 505.708 498.076 506.508 498.701 507.313 499.315 C 520.062 509.208 533.509 518.136 547.547 526.028 C 550.692 527.811 553.871 529.527 557.069 531.204 C 559.197 532.316 561.34 533.408 563.499 534.477 C 566.736 536.081 570 537.627 573.289 539.116 C 573.289 539.116 573.289 539.116 573.289 539.116 C 603.619 552.938 635.69 562.42 668.586 567.292 C 675.887 568.384 683.222 569.245 690.589 569.877 L 690.589 509.786 L 691.241 509.786 Z M 486.779 217.778 L 486.779 314.184 L 690.628 314.184 L 690.628 217.778 Z M 486.779 317.007 L 486.779 408.688 L 690.628 408.688 L 690.628 317.02 Z M 706.45 164.565 L 706.45 195.247 L 731.344 167.5 C 723.094 166.118 714.796 165.14 706.45 164.565 Z M 706.45 317.02 L 706.45 408.688 L 904.711 408.688 L 904.711 317.02 Z M 904.012 517.069 L 904.711 411.524 L 706.45 411.524 L 706.45 570.944 C 719.22 571.483 732.01 571.326 744.764 570.474 L 744.764 570.474 L 744.986 570.474 C 751.078 570.076 757.142 569.511 763.177 568.777 L 763.314 568.777 C 795.522 564.97 827.014 556.43 856.802 543.423 M 942.96 332.076 C 942.208 330.309 941.435 328.542 940.643 326.775 C 939.168 323.461 937.615 320.241 936.009 317.027 L 920.539 317.027 L 920.539 408.688 L 959.643 408.688 C 959.611 382.724 953.136 356.217 942.96 332.076 Z M 920.539 411.524 L 920.539 502.31 C 931.551 491.595 940.865 479.329 947.562 465.307 C 955.623 448.416 959.311 430.138 959.617 411.517 Z M 920.539 290.307 L 920.539 314.164 L 934.559 314.164 C 930.309 305.963 925.63 297.999 920.539 290.307 Z M 786.08 182.557 C 785.049 182.152 784.011 181.748 782.973 181.364 C 772.031 177.258 760.848 173.845 749.489 171.145 L 711.384 213.596 L 711.384 213.596 L 710.64 214.411 L 711.129 214.948 L 846.75 214.948 C 827.861 201.752 807.495 190.878 786.08 182.557 Z M 850.732 217.778 L 709.23 217.778 L 706.45 220.356 L 706.45 314.184 L 730.829 314.184 L 730.829 314.184 L 904.711 314.184 L 904.711 268.724 C 888.988 249.42 870.841 232.292 850.732 217.778 Z" fill="#6c63ff" opacity="0.1"/>
  <path d="M 313.647 266.412 L 313.647 314.184 L 247.619 314.184 C 247.619 313.905 247.658 313.62 247.683 313.342 C 247.742 312.58 247.801 311.825 247.866 311.063 C 247.932 310.175 248.016 309.287 248.101 308.412 C 248.186 307.537 248.271 306.477 248.375 305.516 C 248.48 304.555 248.565 303.581 248.669 302.62 C 248.774 301.659 248.878 300.698 248.995 299.744 C 249.113 298.79 249.218 297.822 249.348 296.868 C 249.446 296.08 249.544 295.284 249.655 294.489 C 249.805 293.369 249.962 292.249 250.125 291.136 C 250.125 290.964 250.177 290.798 250.203 290.633 C 251.396 282.483 253.017 274.405 255.059 266.431 Z" fill="#6c63ff" opacity="0.1"/>
  <path d="M 247.409 317.02 L 313.647 317.02 L 313.647 408.688 L 252.253 408.688 C 252.096 409.635 251.939 410.577 251.764 411.524 L 313.647 411.524 L 313.647 485.439 C 313.542 485.439 313.438 485.359 313.34 485.32 C 311.599 484.617 309.859 483.873 308.119 483.087 C 307.747 482.915 307.381 482.735 307.002 482.57 C 305.262 481.734 303.521 480.851 301.78 479.919 C 301.174 479.594 300.567 479.256 299.972 478.911 C 290.31 473.437 281.527 466.497 273.929 458.329 C 273.701 458.11 273.492 457.872 273.277 457.666 C 272.219 456.5 271.182 455.32 270.176 454.114 C 269.798 453.671 269.432 453.22 269.06 452.789 C 267.872 451.318 266.723 449.794 265.614 448.263 C 265.444 448.031 265.288 447.805 265.124 447.6 C 260.579 441.214 256.809 434.294 253.897 426.991 C 253.806 426.773 253.722 426.534 253.636 426.328 C 252.736 424.009 251.92 421.657 251.215 419.258 C 250.915 418.257 250.621 417.27 250.373 416.229 C 250.282 415.931 250.21 415.626 250.132 415.328 C 246.463 400.65 246.039 385.395 246.039 370.213 C 246.039 368.446 246.039 366.679 246.039 364.912 C 246.091 358.713 246.163 352.522 246.254 346.337 C 246.289 344.746 246.322 343.149 246.352 341.546 C 246.443 337.486 246.574 333.417 246.744 329.339 C 246.783 328.213 246.835 327.08 246.894 325.959 C 246.92 325.31 246.953 324.66 246.992 324.011 C 247.109 321.665 247.248 319.335 247.409 317.02 Z" fill="#6c63ff" opacity="0.1"/>
  <polygon points="379.271 231.588 379.271 314.184 329.462 314.184 329.462 231.588 336.563 231.588 336.563 203.623 365.714 203.623 365.714 231.588 379.271 231.588" fill="#6c63ff" opacity="0.1"/>
  <rect x="329.462" y="317.014" width="49.802" height="91.668" fill="#6c63ff" opacity="0.1"/>
  <path d="M 329.469 411.524 L 379.271 411.524 L 379.271 487.732 C 373.396 489.449 367.408 490.74 361.354 491.595 C 360.858 491.668 360.368 491.728 359.872 491.781 C 359.141 491.867 358.417 491.946 357.692 492.013 L 355.505 492.191 L 355.284 492.191 L 354.318 492.244 L 353.985 492.244 C 353.593 492.244 353.207 492.291 352.816 492.298 L 352.783 492.298 C 352.223 492.298 351.667 492.337 351.106 492.351 L 350.388 492.351 C 349.833 492.351 349.279 492.351 348.711 492.351 L 347.484 492.351 L 346.485 492.351 C 346.06 492.351 345.643 492.351 345.218 492.298 C 344.548 492.271 343.87 492.231 343.182 492.179 L 343.182 492.179 L 341.923 492.086 C 341.4 492.046 340.878 491.992 340.362 491.94 C 339.266 491.843 338.178 491.717 337.099 491.562 L 335.793 491.376 L 335.141 491.284 C 334.051 491.118 332.967 490.933 331.877 490.72 C 331.068 490.575 330.272 490.409 329.469 490.237 Z" fill="#6c63ff" opacity="0.1"/>
  <rect x="649.552" y="221.833" width="41.069" height="92.344" fill="#6c63ff" opacity="0.1"/>
  <polygon points="690.628 317.014 690.628 408.688 486.779 408.688 486.779 369.146 595.358 369.146 595.358 392.472 649.552 392.472 649.552 317.014 690.628 317.014" fill="#6c63ff" opacity="0.1"/>
  <path d="M 691.274 509.819 C 691.058 509.819 690.843 509.819 690.621 509.779 L 690.621 569.917 C 683.263 569.303 675.931 568.443 668.625 567.339 C 635.717 562.468 603.634 552.99 573.289 539.175 C 564.53 535.164 555.949 530.792 547.547 526.061 C 533.514 518.165 520.069 509.237 507.32 499.348 C 504.109 496.857 500.945 494.31 497.829 491.708 C 495.669 489.892 493.528 488.036 491.348 486.241 C 489.847 485.002 488.326 483.775 486.779 482.609 L 486.779 411.524 L 649.018 411.524 C 648.9 411.1 648.795 410.683 648.678 410.258 C 648.802 410.683 648.919 411.1 649.024 411.524 L 690.628 411.524 L 690.628 509.772 C 690.843 509.779 691.058 509.799 691.274 509.819 Z" fill="#6c63ff" opacity="0.1"/>
  <path d="M 797.738 214.955 L 770.977 214.955 L 770.977 206.513 L 782.967 206.513 L 782.967 181.364 C 784.007 181.753 785.043 182.15 786.074 182.557 L 786.074 206.513 L 797.731 206.513 Z" fill="#6c63ff" opacity="0.1"/>
  <path d="M 862.219 314.184 L 730.829 314.184 C 730.841 314.187 730.855 314.187 730.867 314.184 L 730.809 314.184 L 706.45 314.184 L 706.45 221.84 L 713.355 221.84 L 713.355 290.096 L 744.908 290.096 L 744.908 249.672 L 770.983 249.672 L 770.983 217.778 L 797.744 217.778 L 797.744 249.692 L 823.808 249.692 L 823.808 290.115 L 862.226 290.115 Z" fill="#6c63ff" opacity="0.1"/>
  <path d="M 706.45 317.02 L 706.45 408.688 L 862.226 408.688 L 862.226 317.02 Z M 904.489 516.585 L 904.711 444.022 L 862.226 444.022 L 862.226 411.55 L 706.45 411.55 L 706.45 570.944 C 719.22 571.483 732.01 571.326 744.764 570.474 L 744.764 570.474 L 744.986 570.474 C 751.078 570.076 757.142 569.511 763.177 568.777 L 763.314 568.777 C 795.522 564.97 827.014 556.43 856.802 543.423" fill="#6c63ff" opacity="0.1"/>
  <path d="M 923.281 411.524 L 959.617 411.524 C 959.304 430.138 955.623 448.422 947.562 465.307 C 940.865 479.335 931.551 491.602 920.539 502.317 L 920.539 444.002 L 923.281 444.002 Z" fill="#6c63ff" opacity="0.1"/>
  <path d="M 959.643 408.688 L 923.281 408.688 L 923.281 332.076 L 942.96 332.076 C 953.136 356.217 959.611 382.724 959.643 408.688 Z" fill="#6c63ff" opacity="0.1"/>
  <rect x="668.625" y="247.505" width="22.003" height="28.952" fill="#6c63ff" opacity="0.1"/>
  <rect x="668.625" y="307.518" width="22.003" height="6.666" fill="#6c63ff" opacity="0.1"/>
  <rect x="668.625" y="317.014" width="22.003" height="19.45" fill="#6c63ff" opacity="0.1"/>
  <rect x="668.625" y="367.529" width="22.003" height="28.952" fill="#6c63ff" opacity="0.1"/>
  <rect x="668.625" y="427.542" width="22.003" height="28.952" fill="#6c63ff" opacity="0.1"/>
  <path d="M 690.628 509.772 C 690.843 509.772 691.058 509.772 691.281 509.819 C 691.065 509.819 690.849 509.819 690.628 509.779 L 690.628 516.505 L 668.625 516.505 L 668.625 487.553 L 690.628 487.553 Z" fill="#6c63ff" opacity="0.1"/>
  <path d="M 690.628 547.558 L 690.628 569.917 C 683.265 569.303 675.931 568.443 668.625 567.339 L 668.625 547.558 Z" fill="#6c63ff" opacity="0.1"/>
  <rect x="486.779" y="406.561" width="94.298" height="2.127" fill="#6c63ff" opacity="0.1"/>
  <rect x="486.779" y="411.517" width="94.298" height="8.151" fill="#6c63ff" opacity="0.1"/>
  <rect x="486.779" y="446.387" width="94.298" height="13.108" fill="#6c63ff" opacity="0.1"/>
  <path d="M 581.076 486.214 L 581.076 499.322 L 507.32 499.322 C 504.109 496.839 500.945 494.29 497.829 491.675 C 495.662 489.866 493.521 488.01 491.348 486.214 Z" fill="#6c63ff" opacity="0.1"/>
  <path d="M 581.076 526.035 L 581.076 539.175 L 573.289 539.175 C 564.53 535.164 555.949 530.792 547.547 526.061 Z" fill="#6c63ff" opacity="0.1"/>
  <rect x="744.764" y="325.9" width="18.563" height="18.846" fill="#6c63ff" opacity="0.1"/>
  <rect x="342.836" y="238.089" width="18.563" height="18.846" fill="#6c63ff" opacity="0.1"/>
  <rect x="342.836" y="281.865" width="18.563" height="18.846" fill="#6c63ff" opacity="0.1"/>
  <rect x="342.836" y="325.643" width="18.563" height="18.846" fill="#6c63ff" opacity="0.1"/>
  <rect x="342.836" y="369.412" width="18.563" height="18.846" fill="#6c63ff" opacity="0.1"/>
  <rect x="342.836" y="413.188" width="18.563" height="18.846" fill="#6c63ff" opacity="0.1"/>
  <rect x="342.836" y="456.964" width="18.563" height="18.846" fill="#6c63ff" opacity="0.1"/>
  <rect x="815.629" y="325.9" width="18.563" height="18.846" fill="#6c63ff" opacity="0.1"/>
  <rect x="744.764" y="372.386" width="18.563" height="18.846" fill="#6c63ff" opacity="0.1"/>
  <rect x="815.629" y="372.386" width="18.563" height="18.846" fill="#6c63ff" opacity="0.1"/>
  <rect x="744.764" y="418.866" width="18.563" height="18.846" fill="#6c63ff" opacity="0.1"/>
  <rect x="815.629" y="418.866" width="18.563" height="18.846" fill="#6c63ff" opacity="0.1"/>
  <rect x="744.764" y="465.353" width="18.563" height="18.846" fill="#6c63ff" opacity="0.1"/>
  <rect x="815.629" y="465.353" width="18.563" height="18.846" fill="#6c63ff" opacity="0.1"/>
  <rect x="744.764" y="511.84" width="18.563" height="18.846" fill="#6c63ff" opacity="0.1"/>
  <rect x="815.629" y="511.84" width="18.563" height="18.846" fill="#6c63ff" opacity="0.1"/>
  <polygon points="744.764 570.475 744.764 558.321 763.321 558.321 763.321 568.744 744.764 570.475" fill="#6c63ff" opacity="0.1"/>
  <path d="M 250.125 290.612 L 250.125 301.394 L 313.647 301.394 L 313.647 290.612 Z M 256.45 300.718 L 251.228 300.718 L 251.228 291.295 L 256.45 291.295 Z M 262.774 300.718 L 257.553 300.718 L 257.553 291.295 L 262.774 291.295 Z M 269.086 300.718 L 263.864 300.718 L 263.864 291.295 L 269.086 291.295 Z M 275.411 300.718 L 270.189 300.718 L 270.189 291.295 L 275.411 291.295 Z M 281.729 300.718 L 276.507 300.718 L 276.507 291.295 L 281.729 291.295 Z M 288.054 300.718 L 282.832 300.718 L 282.832 291.295 L 288.054 291.295 Z M 294.379 300.718 L 289.157 300.718 L 289.157 291.295 L 294.379 291.295 Z M 300.697 300.718 L 295.475 300.718 L 295.475 291.295 L 300.697 291.295 Z M 307.015 300.718 L 301.793 300.718 L 301.793 291.295 L 307.015 291.295 Z M 313.34 300.718 L 308.119 300.718 L 308.119 291.295 L 313.34 291.295 Z" fill="#6c63ff" opacity="0.1"/>
  <path d="M 250.125 321.997 L 250.125 332.778 L 313.647 332.778 L 313.647 321.997 Z M 256.45 332.103 L 251.228 332.103 L 251.228 322.679 L 256.45 322.679 Z M 262.774 332.103 L 257.553 332.103 L 257.553 322.679 L 262.774 322.679 Z M 269.086 332.103 L 263.864 332.103 L 263.864 322.679 L 269.086 322.679 Z M 275.411 332.103 L 270.189 332.103 L 270.189 322.679 L 275.411 322.679 Z M 281.729 332.103 L 276.507 332.103 L 276.507 322.679 L 281.729 322.679 Z M 288.054 332.103 L 282.832 332.103 L 282.832 322.679 L 288.054 322.679 Z M 294.379 332.103 L 289.157 332.103 L 289.157 322.679 L 294.379 322.679 Z M 300.697 332.103 L 295.475 332.103 L 295.475 322.679 L 300.697 322.679 Z M 307.015 332.103 L 301.793 332.103 L 301.793 322.679 L 307.015 322.679 Z M 313.34 332.103 L 308.119 332.103 L 308.119 322.679 L 313.34 322.679 Z" fill="#6c63ff" opacity="0.1"/>
  <path d="M 250.125 353.388 L 250.125 364.162 L 313.647 364.162 L 313.647 353.388 Z M 256.45 363.48 L 251.228 363.48 L 251.228 354.057 L 256.45 354.057 Z M 262.774 363.48 L 257.553 363.48 L 257.553 354.057 L 262.774 354.057 Z M 269.086 363.48 L 263.864 363.48 L 263.864 354.057 L 269.086 354.057 Z M 275.411 363.48 L 270.189 363.48 L 270.189 354.057 L 275.411 354.057 Z M 281.729 363.48 L 276.507 363.48 L 276.507 354.057 L 281.729 354.057 Z M 288.054 363.48 L 282.832 363.48 L 282.832 354.057 L 288.054 354.057 Z M 294.379 363.48 L 289.157 363.48 L 289.157 354.057 L 294.379 354.057 Z M 300.697 363.48 L 295.475 363.48 L 295.475 354.057 L 300.697 354.057 Z M 307.015 363.48 L 301.793 363.48 L 301.793 354.057 L 307.015 354.057 Z M 313.34 363.48 L 308.119 363.48 L 308.119 354.057 L 313.34 354.057 Z" fill="#6c63ff" opacity="0.1"/>
  <path d="M 250.125 384.772 L 250.125 395.547 L 313.647 395.547 L 313.647 384.772 Z M 256.45 394.871 L 251.228 394.871 L 251.228 385.435 L 256.45 385.435 Z M 262.774 394.871 L 257.553 394.871 L 257.553 385.435 L 262.774 385.435 Z M 269.086 394.871 L 263.864 394.871 L 263.864 385.435 L 269.086 385.435 Z M 275.411 394.871 L 270.189 394.871 L 270.189 385.435 L 275.411 385.435 Z M 281.729 394.871 L 276.507 394.871 L 276.507 385.435 L 281.729 385.435 Z M 288.054 394.871 L 282.832 394.871 L 282.832 385.435 L 288.054 385.435 Z M 294.379 394.871 L 289.157 394.871 L 289.157 385.435 L 294.379 385.435 Z M 300.697 394.871 L 295.475 394.871 L 295.475 385.435 L 300.697 385.435 Z M 307.015 394.871 L 301.793 394.871 L 301.793 385.435 L 307.015 385.435 Z M 313.34 394.871 L 308.119 394.871 L 308.119 385.435 L 313.34 385.435 Z" fill="#6c63ff" opacity="0.1"/>
  <path d="M 250.432 416.143 C 250.68 417.164 250.973 418.171 251.274 419.172 L 251.274 416.826 L 256.496 416.826 L 256.496 426.242 L 253.695 426.242 C 253.773 426.467 253.859 426.699 253.95 426.905 L 313.673 426.905 L 313.673 416.143 Z M 262.833 426.242 L 257.612 426.242 L 257.612 416.826 L 262.833 416.826 Z M 269.145 426.242 L 263.923 426.242 L 263.923 416.826 L 269.145 416.826 Z M 275.469 426.242 L 270.248 426.242 L 270.248 416.826 L 275.469 416.826 Z M 281.788 426.242 L 276.566 426.242 L 276.566 416.826 L 281.788 416.826 Z M 288.113 426.242 L 282.891 426.242 L 282.891 416.826 L 288.113 416.826 Z M 294.437 426.242 L 289.216 426.242 L 289.216 416.826 L 294.437 416.826 Z M 300.756 426.242 L 295.534 426.242 L 295.534 416.826 L 300.756 416.826 Z M 307.074 426.242 L 301.852 426.242 L 301.852 416.826 L 307.074 416.826 Z M 313.399 426.242 L 308.177 426.242 L 308.177 416.826 L 313.399 416.826 Z" fill="#6c63ff" opacity="0.1"/>
  <path d="M 265.144 447.527 C 265.314 447.739 265.47 447.978 265.634 448.19 L 269.086 448.19 L 269.086 452.716 L 270.203 454.041 L 270.203 448.164 L 275.424 448.164 L 275.424 457.666 L 273.277 457.666 C 273.486 457.885 273.688 458.117 273.929 458.329 L 313.634 458.329 L 313.634 447.527 Z M 281.762 457.666 L 276.54 457.666 L 276.54 448.203 L 281.762 448.203 Z M 288.087 457.666 L 282.865 457.666 L 282.865 448.203 L 288.087 448.203 Z M 294.411 457.666 L 289.189 457.666 L 289.189 448.203 L 294.411 448.203 Z M 300.73 457.666 L 295.508 457.666 L 295.508 448.203 L 300.73 448.203 Z M 307.048 457.666 L 301.826 457.666 L 301.826 448.203 L 307.048 448.203 Z M 313.372 457.666 L 308.151 457.666 L 308.151 448.203 L 313.372 448.203 Z" fill="#6c63ff" opacity="0.1"/>
  <path d="M 299.992 478.911 C 300.593 479.256 301.2 479.574 301.807 479.912 L 301.807 479.581 L 307.028 479.581 L 307.028 482.57 C 307.407 482.735 307.766 482.915 308.138 483.087 L 308.138 479.581 L 313.359 479.581 L 313.359 485.32 C 313.459 485.365 313.561 485.403 313.667 485.432 L 313.667 478.911 Z" fill="#6c63ff" opacity="0.1"/>
  <path d="M 730.829 314.184 L 730.829 314.184 Z M 690.621 509.772 L 690.621 509.772 L 691.274 509.772 Z M 648.672 410.258 C 648.795 410.683 648.906 411.107 649.018 411.524 L 649.018 411.524 C 648.919 411.107 648.802 410.683 648.672 410.258 Z M 730.829 314.184 L 730.829 314.184 Z M 336.59 214.955 L 336.59 217.778 L 365.747 217.778 L 365.747 214.941 Z M 690.628 509.772 L 690.628 509.772 L 691.281 509.772 Z M 648.672 410.258 C 648.795 410.683 648.906 411.107 649.018 411.524 L 649.018 411.524 C 648.919 411.107 648.802 410.683 648.672 410.258 Z M 730.829 314.184 L 730.829 314.184 Z M 690.621 509.772 L 690.621 509.772 L 691.274 509.772 Z M 648.672 410.258 C 648.795 410.683 648.906 411.107 649.018 411.524 L 649.018 411.524 C 648.919 411.107 648.802 410.683 648.672 410.258 Z" fill="#6c63ff" opacity="0.1"/>
  <ellipse cx="771.544" cy="654.335" rx="63.601" ry="10.371" fill="#6c63ff" opacity="0.1"/>
  <ellipse cx="484.703" cy="643.964" rx="63.601" ry="10.371" fill="#6c63ff" opacity="0.1"/>
  <path d="M 557.925 369.736 C 557.909 369.67 557.875 369.61 557.827 369.563 C 556.854 368.59 544.453 350.783 544.453 350.783 C 544.453 350.783 543.8 348.795 542.742 346.211 C 543.081 345.765 543.336 345.26 543.494 344.72 C 543.55 344.491 543.592 344.259 543.617 344.024 C 543.617 343.951 543.669 343.892 543.689 343.818 C 543.916 342.92 543.893 341.975 543.624 341.088 C 543.551 341.316 543.461 341.538 543.356 341.751 C 543.11 340.979 542.783 340.237 542.377 339.538 C 540.732 336.662 538.383 334.236 536.652 331.434 C 534.034 327.078 532.993 321.932 533.709 316.881 C 533.709 317.14 533.709 317.404 533.709 317.663 C 533.774 316.661 533.905 315.665 534.101 314.681 C 534.374 313.56 534.738 312.466 535.19 311.407 C 536.744 307.795 539.257 304.648 540.784 301.023 C 541.297 299.8 541.686 298.528 541.946 297.226 C 542.485 295.051 542.681 292.804 542.527 290.566 C 542.527 291.096 542.442 291.626 542.364 292.15 C 542.199 286.771 540.06 281.649 536.365 277.789 C 531.033 272.349 523.377 270.235 516.053 269.122 C 512.976 268.757 510.036 267.618 507.503 265.808 C 504.689 263.96 501.054 263.515 497.765 263.92 C 493.983 264.335 490.47 266.098 487.849 268.897 C 484.371 272.78 482.863 278.28 478.803 281.554 C 476.342 283.542 473.222 284.47 470.357 285.821 C 467.491 287.173 464.782 289.135 463.862 292.037 C 463.862 292.037 463.862 291.997 463.862 291.977 L 463.862 292.143 L 463.823 292.249 C 462.87 295.682 464.711 299.174 465.67 302.6 C 466.669 306.146 466.734 309.89 466.786 313.554 C 466.858 318.034 466.923 322.52 466.852 327.006 C 466.819 328.769 466.76 330.552 466.63 332.308 C 465.085 332.782 463.584 333.394 462.146 334.137 C 460.684 335.105 455.214 341.102 455.214 341.102 L 444.515 382.598 L 444.66 382.764 L 444.515 383.327 L 445.057 383.202 C 446.572 384.858 451.095 389.576 455.977 392.519 L 456.435 400.656 C 456.435 400.656 456.983 408.821 464.378 412.194 C 464.548 415.023 465.077 426.514 462.629 431.067 C 460.934 434.392 460.137 438.115 460.318 441.855 C 460.318 441.855 461.173 448.76 460.2 452.391 C 459.633 454.818 459.59 457.342 460.076 459.787 L 460.076 459.787 C 460.076 459.787 460.076 460.589 460.076 461.967 C 460.076 469.316 460.162 492.867 460.076 495.531 C 459.952 498.679 460.076 545.232 460.076 545.232 C 460.076 545.232 459.47 568.499 457.525 574.801 C 455.579 581.103 456.069 601.97 456.069 601.97 C 456.069 601.97 454.848 626.827 459.163 631.731 C 459.163 631.95 459.123 632.175 459.117 632.394 C 459.117 632.493 459.117 632.606 459.117 632.705 C 459.064 634.594 459.424 636.602 461.023 637.218 C 464.286 638.491 468.601 642.308 469.417 643.401 C 470.233 644.494 474.978 647.218 481.166 646.489 C 485.042 646.047 488.943 645.865 492.843 645.946 L 492.843 645.946 C 492.843 645.946 495.284 645.495 494.494 642.414 L 494.494 642.414 C 494.494 642.414 494.494 642.414 494.494 642.414 C 493.985 640.492 492.079 637.536 490.722 635.594 C 490.969 635.661 491.211 635.714 491.439 635.76 L 491.674 635.807 L 491.857 635.807 C 491.957 635.813 492.058 635.813 492.157 635.807 L 492.288 635.807 C 492.41 635.816 492.532 635.816 492.654 635.807 L 492.654 635.807 C 494.292 635.647 500.401 638.537 501.491 640.445 C 502.581 642.354 506.425 643.805 509.324 644.17 C 511.047 644.381 515.394 644.024 519.042 643.547 C 520.88 643.354 522.7 643.017 524.486 642.539 C 525.348 642.208 525.531 641.148 525.282 639.955 L 525.282 639.955 C 524.99 638.44 524.192 637.073 523.024 636.085 C 521.966 635.323 520.57 633.315 519.539 631.672 L 519.265 631.228 C 521.086 629.465 524.376 623.699 525.374 622.506 C 526.588 621.056 523.415 567.982 523.415 567.982 L 523.415 541.376 L 528.279 516.194 L 531.679 502.867 L 534.597 482.749 C 534.597 482.749 539.701 459.25 538.128 456.944 L 538.128 456.944 C 538.128 456.897 536.822 432.704 535.452 426.891 C 534.858 424.3 535.008 418.469 535.36 412.796 C 536.112 412.039 536.366 410.908 536.013 409.894 C 535.916 409.554 535.789 409.224 535.635 408.907 C 535.635 408.807 535.635 408.701 535.635 408.602 C 538.454 407.285 541.401 406.268 544.427 405.567 C 549.289 404.599 548.076 402.054 548.076 402.054 C 548.076 402.054 549.172 399.874 549.896 398.543 C 550.621 397.211 550.021 385.455 549.896 384.487 C 549.851 384.096 549.55 381.935 549.205 379.484 C 550.764 378.357 552.795 376.959 555.007 375.633 C 559.217 373.102 558.271 370.432 557.925 369.736 Z M 494.481 537.744 C 494.481 537.744 490.832 547.194 492.294 549.612 C 493.756 552.031 492.053 561.011 492.053 561.011 L 490.832 574.337 C 490.832 574.337 487.432 599.054 488.646 604.867 C 489.599 609.425 489.951 623.043 490.062 628.722 L 490.062 628.722 C 489.979 628.755 489.898 628.796 489.821 628.842 L 489.657 628.928 C 490.219 626.695 489.984 622.175 487.197 613.084 L 486.962 575.53 C 486.962 575.53 486.531 532.151 489.906 527.3 C 493.28 522.449 494.475 514.212 494.475 514.212 C 494.475 514.212 493.743 526.094 493.267 529.242 C 492.791 532.39 494.481 537.744 494.481 537.744 Z M 487.686 631.089 C 487.653 631.168 487.615 631.247 487.588 631.32 L 487.406 631.082 C 487.499 631.091 487.593 631.093 487.686 631.089 Z" fill="url(#cb66075b-2ebe-455c-893b-1def13a8d59c)"/>
  <path d="M 524.897 645.972 C 523.011 646.708 512.783 647.96 509.924 647.609 C 507.066 647.257 503.28 645.786 502.202 643.865 C 501.126 641.943 495.088 639.04 493.469 639.226 C 492.806 639.246 492.144 639.152 491.511 638.948 C 490.395 638.604 489.304 638.179 488.248 637.675 C 488.1 636.84 488.125 635.982 488.319 635.158 C 488.357 634.991 488.405 634.827 488.463 634.667 C 488.844 633.58 489.632 632.689 490.656 632.189 L 490.891 632.076 C 491.344 631.878 491.817 631.73 492.301 631.638 C 497.432 630.638 518.599 632.646 518.599 632.646 C 518.599 632.646 519.192 633.726 520.008 635.064 C 521.027 636.721 522.411 638.742 523.455 639.505 C 524.612 640.508 525.397 641.883 525.681 643.401 C 525.929 644.573 525.746 645.647 524.897 645.972 Z" fill="#fff"/>
  <path d="M 524.897 645.972 C 523.011 646.708 512.79 647.96 509.931 647.609 C 507.072 647.257 503.286 645.78 502.202 643.865 C 501.119 641.949 495.095 639.04 493.476 639.226 C 491.857 639.411 488.254 637.675 488.254 637.675 C 488.254 637.675 487.693 635.024 489.324 633.215 L 492.588 635.568 C 492.588 635.568 501.322 638.318 502.94 640.869 C 504.559 643.421 507.509 644.846 511.772 645.104 C 514.956 645.316 522.273 644.057 525.7 643.427 C 525.929 644.573 525.752 645.647 524.897 645.972 Z" opacity="0.1"/>
  <path d="M 493.652 649.351 C 489.802 649.276 485.951 649.459 482.125 649.902 C 475.996 650.631 471.316 647.914 470.5 646.794 C 469.684 645.674 465.461 641.89 462.217 640.564 C 460.631 639.941 460.259 637.914 460.331 636.019 C 460.331 635.92 460.331 635.807 460.331 635.707 C 460.391 634.507 460.566 633.315 460.853 632.149 L 486.25 631.599 L 488.45 634.627 L 488.789 635.091 L 490.127 636.94 C 490.127 636.94 490.735 637.748 491.531 638.928 C 492.875 640.916 494.755 643.852 495.258 645.793 L 495.258 645.793 C 496.061 648.901 493.652 649.351 493.652 649.351 Z" fill="#fff"/>
  <path d="M 493.652 649.351 C 489.802 649.276 485.951 649.459 482.125 649.902 C 476.003 650.631 471.316 647.914 470.507 646.794 C 469.697 645.674 465.461 641.857 462.217 640.578 C 460.631 639.955 460.259 637.928 460.331 636.032 C 462.146 636.463 465.957 637.563 467.452 639.478 C 469.41 642.036 472.916 646.337 477.895 646.608 C 481.917 646.827 491.707 646.098 495.297 645.807 C 496.067 648.901 493.652 649.351 493.652 649.351 Z" opacity="0.1"/>
  <path d="M 490.63 632.162 C 490.336 634.375 489.429 634.971 488.777 635.104 C 488.617 635.136 488.452 635.136 488.293 635.104 C 488.208 635.098 488.122 635.084 488.039 635.064 C 488.039 635.064 465.233 640.18 460.625 636.038 C 460.508 635.932 460.399 635.817 460.299 635.694 C 460.358 634.493 460.533 633.301 460.821 632.136 L 486.218 631.585 L 488.417 634.614 C 488.798 633.527 489.587 632.636 490.61 632.136 Z" opacity="0.1"/>
  <path d="M 520.002 635.038 C 519.493 635.608 519.069 635.932 518.801 635.82 C 517.6 635.33 507.757 633.627 504.63 635.091 C 501.504 636.555 490.923 635.33 490.923 635.33 C 490.923 635.33 490.923 634.057 490.865 632.016 C 491.318 631.818 491.79 631.671 492.275 631.578 C 497.405 630.578 518.573 632.586 518.573 632.586 C 518.573 632.586 519.192 633.699 520.002 635.038 Z" opacity="0.1"/>
  <path d="M 534.897 485.141 L 532.012 505.379 L 528.657 518.791 L 523.853 544.146 L 523.853 570.984 C 523.853 570.984 526.973 624.382 525.772 625.84 C 524.571 627.298 520.008 635.601 518.808 635.117 C 517.607 634.634 507.764 632.924 504.637 634.382 C 501.511 635.84 490.93 634.627 490.93 634.627 C 490.93 634.627 490.689 613.905 489.488 608.054 C 488.287 602.202 491.648 577.332 491.648 577.332 L 492.85 563.926 C 492.85 563.926 494.533 554.901 493.091 552.462 C 491.648 550.024 495.251 540.534 495.251 540.534 C 495.251 540.534 493.574 535.16 494.057 531.992 C 494.54 528.824 495.251 516.877 495.251 516.877 C 495.251 516.877 494.057 525.173 490.722 530.044 C 487.386 534.914 487.81 578.565 487.81 578.565 L 488.045 616.338 C 494.057 636.337 488.045 634.382 488.045 634.382 C 488.045 634.382 465.24 639.505 460.631 635.356 C 456.023 631.207 457.342 605.098 457.342 605.098 C 457.342 605.098 456.865 584.131 458.784 577.796 C 460.703 571.461 461.31 548.049 461.31 548.049 C 461.31 548.049 461.186 501.23 461.31 498.069 C 461.401 495.419 461.31 471.689 461.31 464.273 C 461.31 462.895 461.31 462.08 461.31 462.08 L 464.065 455.135 L 496.7 450.987 L 512.313 450.987 C 512.313 450.987 535.811 456.593 538.239 459.012 C 538.291 459.052 538.335 459.101 538.369 459.157 C 539.942 461.497 534.897 485.141 534.897 485.141 Z" fill="#6c63ff"/>
  <path d="M 495.271 591.447 C 495.271 591.447 502.451 609.001 505.838 610.221 C 509.226 611.44 495.271 591.447 495.271 591.447 Z" opacity="0.1"/>
  <path d="M 497.928 617.292 C 497.928 617.292 522.169 618.511 521.928 621.195 C 521.686 623.879 497.928 617.292 497.928 617.292 Z" opacity="0.1"/>
  <path d="M 465.494 610.273 C 466.453 611.195 483.985 612.924 482.543 614.608 C 481.101 616.29 466.936 619.564 466.936 619.564 Z" opacity="0.1"/>
  <path d="M 462.616 579.989 C 462.616 580.718 466.219 603.395 467.185 604.369 C 468.151 605.344 476.068 606.317 476.068 606.317 Z" opacity="0.1"/>
  <path d="M 488.757 270.03 C 485.317 273.933 483.829 279.466 479.821 282.766 C 477.386 284.755 474.306 285.702 471.473 287.054 C 468.64 288.406 465.833 290.467 464.991 293.528 C 464.052 296.974 465.866 300.493 466.819 303.939 C 467.805 307.504 467.864 311.228 467.922 314.959 C 467.988 319.472 468.059 323.984 467.981 328.498 C 467.864 335.529 467.289 342.884 463.615 348.842 C 476.884 353.129 490.996 353.712 504.912 354.263 C 507.586 354.456 510.272 354.388 512.933 354.057 C 515.239 353.59 517.52 353.004 519.767 352.301 C 524.209 351.108 528.787 350.512 533.382 350.532 C 535.386 350.532 537.43 350.657 539.362 350.127 C 541.294 349.597 543.154 348.239 543.676 346.277 C 544.14 344.515 543.461 342.639 542.573 341.055 C 540.954 338.166 538.656 335.754 536.921 332.905 C 533.326 326.801 532.8 319.326 535.504 312.765 C 537.044 309.127 539.525 305.96 541.039 302.315 C 544.207 294.324 542.498 285.192 536.666 278.936 C 531.399 273.462 523.84 271.341 516.608 270.215 C 513.563 269.85 510.658 268.711 508.162 266.902 C 505.388 265.046 501.791 264.596 498.541 265.007 C 494.791 265.434 491.318 267.216 488.757 270.03 Z" fill="#3f3d56"/>
  <g opacity="0.1" transform="matrix(0.652713, 0, 0, 0.662675, 197.528717, 92.903641)">
    <path d="M534.06,344.57a33.27,33.27,0,0,0-2.55,15.27A32.7,32.7,0,0,1,534.06,349c2.35-5.49,6.15-10.27,8.47-15.77a31.91,31.91,0,0,0,2.33-14.52,31.1,31.1,0,0,1-2.33,10.1C540.21,334.31,536.41,339.08,534.06,344.57Z" transform="translate(-15.95 -18.56)"/>
    <path d="M430.51,352.29c.06,3.92.12,7.85.13,11.77,0-5.4-.05-10.79-.13-16.18-.08-5.59-.18-11.25-1.69-16.64-1-3.42-2.48-6.89-3-10.34-.89,4.9,1.64,9.87,3,14.76C430.33,341,430.43,346.7,430.51,352.29Z" transform="translate(-15.95 -18.56)"/>
    <path d="M540,401c-3,.81-6.08.63-9.15.61A80.22,80.22,0,0,0,510,404.23a106.2,106.2,0,0,1-10.47,2.64,63.17,63.17,0,0,1-12.3.32c-20.6-.81-41.49-1.68-61.22-7.57a33.94,33.94,0,0,1-2,3.8c20.33,6.46,41.95,7.35,63.26,8.18a63.17,63.17,0,0,0,12.3-.32A103.41,103.41,0,0,0,510,408.65,80.22,80.22,0,0,1,530.81,406c3.07,0,6.19.19,9.15-.62s5.81-2.84,6.61-5.8a7.94,7.94,0,0,0-.1-4.16C545.58,398.22,542.83,400.17,540,401Z" transform="translate(-15.95 -18.56)"/>
  </g>
  <path d="M 520.25 338.484 C 519.767 339.584 517.73 349.087 517.247 350.061 C 516.764 351.035 514.127 366.628 513.886 367.502 C 513.644 368.377 496.504 363.845 496.504 363.845 L 486.185 355.064 L 475.578 344.349 C 475.578 344.349 475.265 334.681 483.078 331.579 C 483.609 331.367 484.154 331.194 484.71 331.062 C 494.187 328.75 493.234 299.492 493.234 299.492 L 512.685 308.021 C 512.685 308.021 509.082 325.091 509.206 328.385 C 509.239 329.491 510.094 330.181 511.21 330.598 C 512.936 331.097 514.732 331.294 516.523 331.182 C 516.523 331.182 520.733 337.391 520.25 338.484 Z" fill="#fbbebe"/>
  <path d="M 555.073 370.544 L 557.833 371.28 C 557.833 371.28 559.876 374.434 555.073 377.37 C 552.022 379.251 549.094 381.33 546.306 383.593 L 532.11 387.979 L 529.375 379.265 L 542.586 369.086 Z" fill="#6c63ff"/>
  <path d="M 555.073 370.544 L 557.833 371.28 C 557.833 371.28 559.876 374.434 555.073 377.37 C 552.022 379.251 549.094 381.33 546.306 383.593 L 532.11 387.979 L 529.375 379.265 L 542.586 369.086 Z" opacity="0.1"/>
  <path d="M 451.467 378.961 L 445.945 384.447 C 445.945 384.447 455.906 396.15 463.569 396.879 C 471.231 397.608 476.173 387.979 476.173 387.979 L 469.541 377.377 Z" fill="#6c63ff"/>
  <path d="M 451.467 378.961 L 445.945 384.447 C 445.945 384.447 455.906 396.15 463.569 396.879 C 471.231 397.608 476.173 387.979 476.173 387.979 L 469.541 377.377 Z" opacity="0.1"/>
  <circle cx="469.41" cy="311.17" r="29.43" opacity="0.1" transform="matrix(0.652713, 0, 0, 0.662675, 197.528717, 92.903641)"/>
  <circle cx="469.41" cy="308.96" r="29.43" fill="#fbbebe" transform="matrix(0.652713, 0, 0, 0.662675, 197.528717, 92.903641)"/>
  <path d="M 538.383 461.37 C 534.008 461.879 529.7 462.858 525.531 464.293 C 518.35 466.719 462.087 464.332 461.304 464.293 C 461.304 462.915 461.304 462.099 461.304 462.099 L 464.058 455.155 L 496.694 451.006 L 512.306 451.006 C 512.306 451.006 535.805 456.613 538.233 459.031 C 538.33 460.489 538.383 461.37 538.383 461.37 Z" opacity="0.1"/>
  <path d="M 520.25 338.484 C 519.767 339.584 517.73 349.087 517.247 350.061 C 516.764 351.035 514.127 366.628 513.886 367.502 C 513.644 368.377 496.504 363.845 496.504 363.845 L 486.185 355.064 L 475.578 344.349 C 475.578 344.349 475.265 334.681 483.078 331.579 L 502.477 354.222 L 511.21 330.598 C 512.936 331.097 514.732 331.294 516.523 331.182 C 516.523 331.182 520.733 337.391 520.25 338.484 Z" opacity="0.1"/>
  <path d="M 502.477 354.951 L 482.621 331.758 C 480.26 330.228 477.3 330.006 474.743 331.168 C 470.298 333.123 464.776 334.707 463.333 335.681 C 461.891 336.655 456.486 342.685 456.486 342.685 L 472.583 385.435 L 465.494 413.592 C 465.494 413.592 466.577 427.979 463.816 433.22 C 462.136 436.571 461.348 440.312 461.532 444.068 C 461.532 444.068 462.374 451.019 461.415 454.671 C 460.854 457.112 460.811 459.647 461.291 462.106 C 461.291 462.106 518.331 464.545 525.531 462.106 C 529.699 460.667 534.008 459.688 538.383 459.184 C 538.383 459.184 537.077 434.797 535.772 428.946 C 534.466 423.095 536.855 400.789 536.855 400.789 L 535.295 376.893 L 544.655 352.374 C 544.655 352.374 539.583 336.655 534.297 335.071 C 534.297 335.071 524.695 332.752 522.652 331.659 C 520.609 330.565 514.604 329.584 514.604 329.584 L 511.452 330.658 Z" fill="#6c63ff"/>
  <rect x="296.953" y="293.949" width="45.719" height="71.021" rx="2.94" ry="2.94" transform="matrix(0.997626, 0.068872, -0.066826, 0.997767, 209.878052, 59.325897)" opacity="0.1"/>
  <rect x="298.396" y="292.49" width="45.719" height="71.021" rx="2.94" ry="2.94" transform="matrix(0.997626, 0.068872, -0.066826, 0.997767, 209.780151, 59.226501)" fill="#3f3d56"/>
  <rect x="301.314" y="297.825" width="39.831" height="61.108" transform="matrix(0.997626, 0.068872, -0.066826, 0.997767, 209.806244, 59.226501)" fill="#fff"/>
  <rect x="307.483" y="313" width="32.541" height="9.206" transform="matrix(0.997484, 0.070889, -0.068785, 0.997634, 209.036041, 59.080719)" opacity="0.1"/>
  <rect x="333.083" y="351.14" width="5.163" height="4.798" transform="matrix(0.997626, 0.068872, -0.066826, 0.997767, 211.522888, 58.29213)" opacity="0.1"/>
  <rect x="306.758" y="338.855" width="26.43" height="4.798" transform="matrix(0.997626, 0.068872, -0.066826, 0.997767, 210.667847, 59.345779)" opacity="0.1"/>
  <rect x="310.485" y="296.03" width="27.521" height="7.375" transform="matrix(0.997626, 0.068872, -0.066826, 0.997767, 207.90033, 58.954803)" fill="#3f3d56"/>
  <rect x="310.485" y="296.03" width="27.521" height="7.375" transform="matrix(0.997626, 0.068872, -0.066826, 0.997767, 207.90033, 58.954803)" opacity="0.1"/>
  <path d="M 504.879 460.026 C 504.879 460.026 504.637 496.115 495.271 516.836 C 495.271 516.836 506.563 489.528 506.563 488.434 C 506.563 487.341 512.802 475.877 511.132 472.464 C 509.461 469.051 504.879 460.026 504.879 460.026 Z" opacity="0.1"/>
  <path d="M 505.388 292.766 C 505.029 289.572 505.8 286.352 507.562 283.681 C 507.128 289.215 510.756 294.235 516.086 295.476 C 515.635 295.08 515.472 294.442 515.675 293.873 C 517.013 295.41 518.037 297.232 519.552 298.584 C 521.066 299.936 523.337 300.745 525.119 299.784 C 527.541 298.459 527.567 294.966 526.94 292.249 C 525.596 286.463 522.837 281.114 518.919 276.696 C 516.937 273.989 513.821 272.38 510.499 272.349 C 506.791 272.057 502.94 272.389 499.618 274.079 C 497.748 275.114 495.997 276.356 494.396 277.783 L 485.258 285.351 C 484.379 285.994 483.626 286.798 483.039 287.724 C 482.647 288.496 482.411 289.341 482.347 290.209 C 481.871 295.263 484.252 300.157 488.495 302.845 C 488.406 298.839 490.708 295.174 494.325 293.568 C 494.885 294.043 495.216 294.742 495.232 295.483 L 497.157 291.997 C 497.443 291.363 497.895 290.82 498.462 290.427 C 499.651 289.764 501.132 290.546 502.144 291.481 C 503.156 292.415 504.141 293.581 505.499 293.727 L 505.551 288.538" opacity="0.1"/>
  <path d="M 505.388 292.037 C 505.028 288.841 505.798 285.618 507.562 282.946 C 506.974 288.247 510.91 293.72 516.092 294.741 C 515.641 294.347 515.477 293.711 515.681 293.144 C 517.019 294.681 518.044 296.497 519.558 297.855 C 521.073 299.214 523.344 300.016 525.126 299.048 C 527.547 297.723 527.574 294.23 526.947 291.52 C 525.602 285.734 522.844 280.385 518.925 275.968 C 517.709 274.463 516.177 273.254 514.441 272.429 C 513.184 271.957 511.863 271.684 510.524 271.62 C 506.817 271.329 502.967 271.653 499.644 273.343 C 497.775 274.384 496.025 275.628 494.422 277.054 L 485.284 284.622 C 484.404 285.263 483.65 286.069 483.065 286.994 C 482.672 287.767 482.437 288.612 482.373 289.479 C 481.898 294.533 484.279 299.424 488.522 302.11 C 488.435 298.104 490.737 294.441 494.35 292.833 C 494.909 293.31 495.239 294.007 495.258 294.747 L 497.177 291.275 C 497.461 290.64 497.913 290.096 498.482 289.705 C 499.67 289.042 501.152 289.824 502.164 290.758 C 503.175 291.692 504.16 292.852 505.518 293.005 L 505.571 287.81" fill="#3f3d56"/>
  <path d="M 514.487 415.049 C 512.809 414.188 485.069 418.581 485.069 418.581 C 485.069 418.581 480.5 417.256 469.456 415.414 C 458.412 413.572 457.707 402.612 457.707 402.612 L 456.5 380.67 L 460.226 377.356 L 476.192 387.959 C 476.192 387.959 476.44 393.32 476.192 394.288 C 476.036 394.951 475.618 395.739 475.657 396.276 C 475.682 396.575 475.901 396.82 476.192 396.873 C 477.276 397.151 492.04 399.576 492.04 399.576 C 492.04 399.576 526.262 397.197 534.793 408.9 C 535.469 409.759 535.98 410.739 536.301 411.789 C 538.415 419.788 516.008 415.812 514.487 415.049 Z" fill="#fbbebe"/>
  <path d="M 536.32 411.835 C 535.014 412.425 534.205 412.849 534.205 412.849 C 534.205 412.849 521.96 412.485 515.081 409.954 C 508.201 407.422 499.84 407.873 499.84 407.873 C 499.84 407.873 471.172 402.863 475.618 396.322 C 475.642 396.621 475.862 396.866 476.153 396.919 C 477.236 397.197 492.001 399.622 492.001 399.622 C 492.001 399.622 526.222 397.244 534.753 408.946 C 535.45 409.8 535.982 410.781 536.32 411.835 Z" opacity="0.1"/>
  <path d="M 548.226 373.228 C 548.226 373.228 549.909 385.295 550.027 386.276 C 550.144 387.257 550.751 399.073 550.027 400.417 C 549.302 401.763 548.226 403.95 548.226 403.95 C 548.226 403.95 549.426 406.508 544.623 407.488 C 539.818 408.469 534.179 411.385 534.179 411.385 C 534.179 411.385 521.928 411.02 515.087 408.463 C 508.246 405.905 499.84 406.388 499.84 406.388 C 499.84 406.388 463.451 400.046 479.064 392.306 C 494.677 384.566 505.721 395.05 505.721 395.05 L 523.128 393.957 C 523.128 393.957 529.617 389.928 531.418 390.298 C 532.69 390.463 533.982 390.251 535.139 389.689 L 535.263 376.886 Z" fill="#fbbebe"/>
  <path d="M 459.952 343.607 L 456.467 343.421 L 445.906 385.17 C 445.906 385.17 457.309 382.241 462.224 385.17 C 467.139 388.098 476.153 388.702 476.153 388.702 L 472.791 355.422 Z" opacity="0.1"/>
  <path d="M 459.952 342.871 L 456.467 342.685 L 445.906 384.434 C 445.906 384.434 457.309 381.505 462.224 384.434 C 467.139 387.363 476.153 387.966 476.153 387.966 L 472.791 354.687 Z" fill="#6c63ff"/>
  <path d="M 539.825 352.016 L 544.623 353.116 C 544.623 353.116 556.874 371.008 557.833 372.009 C 558.793 373.009 553.265 376.648 550.987 376.648 C 548.709 376.648 537.54 377.973 534.297 381.034 C 531.053 384.096 532.403 368.689 532.403 368.338 C 532.403 367.986 536.431 358.265 536.431 358.265 Z" opacity="0.1"/>
  <path d="M 539.825 351.287 L 544.623 352.38 C 544.623 352.38 556.874 370.306 557.833 371.28 C 558.793 372.254 553.265 375.918 550.987 375.918 C 548.709 375.918 537.54 377.244 534.297 380.305 C 531.053 383.367 532.403 367.96 532.403 367.608 C 532.403 367.258 536.457 357.503 536.457 357.503 Z" fill="#6c63ff"/>
  <g opacity="0.1" transform="matrix(0.652713, 0, 0, 0.662675, 197.528717, 92.903641)">
    <path d="M490.89,305.43a14.75,14.75,0,0,1,.05-2.3,20.47,20.47,0,0,0-3.08,7.55l0,2.32s0-.05,0-.08l0,.55c0,1.62,0,3.25-.05,4.87l-.14,0,0,.75c0-.26,0-.51-.05-.77-2-.32-3.43-2-4.92-3.34s-3.82-2.62-5.64-1.59a5.73,5.73,0,0,0-2,2.37L472.09,321a3.87,3.87,0,0,0-1.39-2.88,14.91,14.91,0,0,0-8.93,14,20.32,20.32,0,0,1-9.49-15.93,20.22,20.22,0,0,0,9.49,18.13,14.93,14.93,0,0,1,8.93-14,3.91,3.91,0,0,1,1.39,2.89l2.94-5.24a5.73,5.73,0,0,1,2-2.37c1.82-1,4.09.18,5.64,1.59s3.06,3.16,5.14,3.39q0-3.84.08-7.66A20.37,20.37,0,0,1,490.89,305.43Z" transform="translate(-15.95 -18.56)"/>
    <path d="M487.51,315.5c.05-.68.13-1.36.23-2l.11-2.76A20.24,20.24,0,0,0,487.51,315.5Z" transform="translate(-15.95 -18.56)"/>
    <path d="M517.85,327.43c-2.73,1.46-6.21.24-8.53-1.8s-3.89-4.79-5.94-7.11a2.21,2.21,0,0,0,.63,2.42c-.2,0-.39-.1-.58-.15,2,2.3,3.59,5,5.89,7s5.8,3.26,8.53,1.8,3.51-4.88,3.27-8.21C520.94,324,520,326.27,517.85,327.43Z" transform="translate(-15.95 -18.56)"/>
    <path d="M503.37,320.77a17,17,0,0,1-12.46-14.86c-.57,7.85,5.35,15.72,13.1,17.23A2.2,2.2,0,0,1,503.37,320.77Z" transform="translate(-15.95 -18.56)"/>
  </g>
  <path d="M 829.134 401.478 C 829.134 401.478 826.562 401.114 826.562 397.316 C 826.562 393.519 824.721 386.409 824.721 386.409 L 824.721 386.409 C 824.721 386.409 823.129 374.037 820.929 372.075 C 818.73 370.114 815.903 358.596 815.903 358.596 C 815.903 358.596 815.42 352.347 814.434 351.002 C 813.449 349.657 812.117 346.363 810.153 341.665 C 808.188 336.967 800.016 333.746 800.016 333.746 C 800.016 333.746 785.206 325.025 781.009 322.182 L 781.009 322.182 C 780.625 321.947 780.266 321.671 779.938 321.36 C 779.208 320.393 776.022 320.373 776.022 320.373 C 775.689 318.233 775.369 315.781 775.265 313.561 C 775.265 313.323 775.265 313.084 775.265 312.845 C 779.945 310.037 783.47 305.609 785.193 300.374 C 785.271 300.122 785.336 299.863 785.409 299.605 C 785.988 299.423 786.463 298.999 786.714 298.438 C 787.085 297.584 787.099 296.59 787.568 295.788 C 788.117 294.847 789.162 294.343 789.984 293.641 C 792.059 291.845 792.595 288.83 792.497 286.093 C 792.432 283.866 792.079 281.626 792.216 279.42 C 792.216 279.234 792.216 279.049 792.255 278.863 C 792.294 278.539 792.34 278.201 792.399 277.883 C 792.719 276.239 793.417 274.688 793.809 273.059 C 794.2 271.428 794.24 269.592 793.326 268.187 C 791.987 266.127 789.2 265.716 786.753 265.537 C 783.979 265.298 781.531 265.603 779.723 263.264 C 778.894 262.042 777.959 260.898 776.929 259.844 C 776.564 259.5 773.013 257.293 773.013 257.154 C 769.539 255.514 765.598 255.206 761.917 256.286 C 760.07 256.829 758.34 257.717 756.467 258.161 C 752.446 259.129 747.812 258.082 744.392 260.421 C 742.486 261.746 741.343 263.86 740.273 265.908 C 739.403 267.596 738.52 269.285 737.623 270.977 C 736.174 273.754 734.712 276.577 734.105 279.651 C 733.978 280.324 733.898 281.003 733.863 281.686 L 733.863 281.686 C 733.863 281.932 733.863 282.177 733.863 282.422 C 733.863 282.528 733.863 282.634 733.863 282.74 C 733.863 282.965 733.863 283.19 733.903 283.403 C 733.942 283.615 733.903 283.674 733.949 283.813 C 733.994 283.952 734.007 284.264 734.046 284.476 C 734.086 284.688 734.164 285.066 734.242 285.351 C 734.242 285.477 734.32 285.596 734.359 285.722 C 734.399 285.848 734.503 286.166 734.588 286.385 C 734.673 286.603 734.679 286.617 734.732 286.729 C 734.829 286.961 734.947 287.187 735.065 287.391 C 735.116 287.478 735.156 287.564 735.208 287.65 C 735.387 287.961 735.588 288.257 735.808 288.538 C 737.199 290.307 739.261 291.434 740.782 293.091 C 740.782 293.157 740.782 293.223 740.782 293.29 C 740.782 293.468 740.782 293.648 740.782 293.833 C 740.971 301.336 744.803 308.257 751.017 312.322 C 751.017 312.573 751.049 312.832 751.063 313.091 C 751.19 315.055 751.166 317.027 750.99 318.988 C 750.451 318.346 749.654 317.985 748.824 318.008 C 748.544 317.994 748.262 318.017 747.988 318.08 L 747.929 318.034 L 747.929 318.034 L 747.929 318.094 C 746.494 318.451 744.725 319.969 743.034 324.283 C 743.034 324.283 737.89 330.167 733.974 329.922 C 730.058 329.677 720.143 336.052 720.143 336.052 C 720.143 336.052 710.47 342.421 708.395 348.915 C 707.234 352.598 705.841 356.202 704.224 359.703 L 692.233 384.699 L 692.233 384.699 L 690.033 404.579 C 690.033 404.579 691.254 413.4 691.013 414.751 C 690.771 416.103 696.032 428.23 696.032 428.23 C 696.032 428.23 713.414 459.23 720.516 460.821 L 721.025 460.462 C 721.33 460.619 721.652 460.739 721.984 460.821 L 723.446 459.78 C 723.537 460.945 723.497 462.117 723.329 463.273 C 722.356 466.34 723.7 486.313 725.411 490.23 C 727.121 494.146 726.514 545.504 726.514 545.504 L 726.273 550.03 C 726.273 550.03 726.273 550.175 726.331 550.427 L 726.273 551.501 L 726.449 551.594 C 726.632 553.034 726.572 554.495 726.273 555.914 C 725.659 557.903 725.411 563.515 725.411 563.515 C 725.411 563.515 720.516 595.244 722.839 601.619 C 725.163 607.994 727.127 614.979 727.127 614.979 C 727.127 614.979 729.575 622.93 727.245 624.256 C 724.915 625.582 718.316 627.934 719.66 631.241 C 720.9 634.302 725.607 642.506 726.305 643.706 L 726.246 644.369 L 725.287 654.925 C 725.442 656.319 725.815 657.679 726.39 658.954 C 727.44 661.26 729.477 663.639 733.367 663.381 C 734.02 663.334 734.771 663.261 735.508 663.162 C 742.617 662.188 751.363 658.967 751.363 658.967 C 750.909 658.675 750.494 658.326 750.129 657.927 L 750.129 657.927 C 749.423 657.232 749.029 656.274 749.039 655.276 C 749.144 653.348 745.599 644.196 744.712 641.937 L 744.509 641.433 C 744.509 641.433 752.589 632.851 751.245 625.257 C 751.245 625.257 742.303 619.956 745.246 617.04 C 748.19 614.124 753.451 605.774 753.451 605.774 C 753.451 605.774 753.693 574.529 753.451 569.87 C 753.2 566.63 753.351 563.371 753.901 560.169 C 754 559.692 754.117 559.221 754.241 558.751 C 758.316 559.375 762.43 559.692 766.551 559.698 C 768.057 559.698 769.58 559.668 771.12 559.606 C 771.12 560.047 771.14 560.525 771.179 561.037 C 771.519 568.777 772.152 582.355 772.668 587.398 C 773.398 594.621 777.438 614.111 777.438 614.111 C 777.438 614.111 769.73 619.127 778.783 631.513 C 778.783 631.513 778.783 635.992 778.183 636.648 L 778.183 636.648 C 777.541 638.773 777.025 640.935 776.636 643.123 C 776.257 645.448 776.101 647.815 776.714 649.034 C 778.183 651.963 786.994 651.724 786.994 651.724 L 786.994 651.724 C 787.065 651.707 787.137 651.697 787.21 651.691 C 790.57 651.33 793.931 652.358 796.537 654.541 C 799.885 657.271 812.587 656.078 819.473 655.203 C 822.169 654.852 823.971 654.541 823.971 654.541 C 824.057 654.23 824.088 653.907 824.062 653.586 L 824.062 653.586 C 823.99 651.87 822.665 648.106 813.683 644.746 C 813.683 644.746 805.238 638.981 805.355 633.958 L 805.166 633.958 L 804.194 633.958 C 804.807 633.938 805.238 633.938 805.238 633.938 C 805.238 633.938 801.928 621.685 803.279 620.685 C 804.631 619.683 800.584 606.106 800.584 606.106 C 800.584 606.106 798.267 583.31 798.136 581.719 C 798.145 580.348 798.351 578.986 798.75 577.677 L 798.136 565.172 C 798.136 565.172 798.018 561.017 798.136 559.665 C 798.123 558.492 798.031 557.321 797.862 556.159 C 797.803 555.696 797.744 555.212 797.679 554.735 C 800.845 553.92 802.901 553.171 802.901 553.171 L 802.536 509.666 C 805.224 504.365 805.72 492.728 805.707 484.485 C 805.707 479.184 805.473 475.26 805.473 475.26 L 809.147 469.17 C 809.147 469.17 809.996 461.881 808.651 460.284 C 808.057 459.561 808.325 458.813 808.814 458.196 C 809.072 457.982 809.345 457.787 809.63 457.613 C 809.598 457.567 809.57 457.518 809.546 457.467 C 809.802 457.25 810.075 457.052 810.362 456.878 C 810.362 456.878 809.056 454.824 810.225 453.955 C 811.321 454.711 812.3 455.314 813.044 455.744 C 812.992 456.228 812.94 456.506 812.94 456.506 L 813.253 455.844 C 813.971 456.255 814.408 456.506 814.408 456.506 C 814.408 456.506 820.165 444.863 820.042 443.154 C 819.917 441.444 823.958 434.207 823.958 434.207 C 823.958 434.207 824.447 430.404 826.653 428.813 C 828.86 427.223 828.364 415.699 828.364 415.699 C 828.364 415.699 828.977 409.695 830.446 407.25 C 831.914 404.805 829.134 401.478 829.134 401.478 Z M 718.981 396.369 L 719.093 399.145 C 718.44 398.078 717.97 397.316 717.97 397.316 Z" fill="url(#b7415561-023b-44da-badb-9b3453976a8a)"/>
  <path d="M 814.748 451.47 L 813.338 457.567 C 813.338 457.567 802.046 451.702 800.016 444.28 C 797.986 436.859 803.416 434.029 803.416 434.029 L 813.945 438.548 Z" fill="#fff"/>
  <path d="M 814.748 451.47 L 813.338 457.567 C 813.338 457.567 802.046 451.702 800.016 444.28 C 797.986 436.859 803.416 434.029 803.416 434.029 L 813.945 438.548 Z" opacity="0.1"/>
  <path d="M 751.376 658.96 C 751.376 658.96 740.932 662.857 733.753 663.347 C 729.941 663.606 727.937 661.234 726.906 658.948 C 726.345 657.686 725.98 656.345 725.822 654.971 L 726.769 644.468 L 727.265 638.882 L 742.518 634.852 L 744.679 641.565 L 744.882 642.069 C 745.743 644.315 749.228 653.42 749.124 655.322 C 749.107 656.317 749.491 657.274 750.188 657.973 C 750.541 658.352 750.94 658.684 751.376 658.96 Z" fill="#fff"/>
  <path d="M 822.678 653.619 C 822.705 653.94 822.674 654.264 822.587 654.574 C 822.587 654.574 800.251 658.351 795.682 654.574 C 793.085 652.343 789.682 651.325 786.309 651.771 C 786.309 651.771 777.667 652.009 776.225 649.12 C 775.624 647.907 775.781 645.555 776.153 643.242 C 776.533 641.066 777.038 638.915 777.667 636.801 L 778.013 636.522 L 780.069 634.846 L 804.141 634.123 L 804.324 634.123 C 804.206 639.12 812.489 644.852 812.489 644.852 C 821.308 648.165 822.606 651.91 822.678 653.619 Z" fill="#fff"/>
  <path d="M 822.684 653.619 C 822.708 653.941 822.675 654.264 822.587 654.574 C 822.587 654.574 800.251 658.351 795.689 654.574 C 793.09 652.34 789.685 651.323 786.309 651.771 C 786.309 651.771 777.661 652.009 776.218 649.12 C 775.624 647.907 775.775 645.555 776.146 643.235 C 779.475 643.573 784.73 644.415 786.792 646.43 C 789.912 649.478 795.199 652.526 798.437 652.771 C 800.995 652.93 816.21 653.42 822.684 653.619 Z" opacity="0.1"/>
  <path d="M 751.376 658.96 C 751.376 658.96 740.932 662.857 733.753 663.347 C 729.941 663.606 727.937 661.234 726.906 658.948 C 729.568 659.855 733.257 660.803 735.195 659.935 C 737.493 658.894 745.638 658.232 750.207 657.946 C 750.552 658.334 750.945 658.675 751.376 658.96 Z" opacity="0.1"/>
  <path d="M 766.871 344.925 C 758.256 341.526 747.173 330.293 749.94 325.045 C 750.551 323.72 750.917 322.291 751.017 320.83 C 751.195 318.848 751.221 316.853 751.095 314.866 C 750.901 311.61 750.515 308.368 749.94 305.158 C 749.94 305.158 776.838 305.775 775.272 309.797 C 774.814 310.983 774.736 313.031 774.867 315.317 C 774.997 317.603 775.317 320.208 775.656 322.401 C 776.12 325.403 776.597 327.703 776.597 327.703 C 776.597 327.703 774.946 330.042 773.986 330.167 C 773.026 330.293 779.233 349.796 766.871 344.925 Z" fill="#cf6f80"/>
  <path d="M 744.855 642.036 L 744.653 642.261 C 736.611 632.388 726.886 644.7 726.886 644.7 L 726.743 644.434 L 727.239 638.848 L 742.492 634.82 L 744.653 641.532 Z" opacity="0.1"/>
  <path d="M 804.337 634.82 C 804.337 634.82 798.463 634.7 795.33 637.509 C 792.196 640.319 777.054 638.113 777.706 637.509 C 777.897 637.204 778.013 636.856 778.046 636.496 L 780.102 634.82 L 804.174 634.097 C 804.265 634.561 804.337 634.82 804.337 634.82 Z" opacity="0.1"/>
  <path d="M 754.862 557.28 C 754.424 558.378 754.092 559.517 753.869 560.679 C 753.324 563.864 753.174 567.105 753.418 570.328 C 753.66 574.967 753.418 606.053 753.418 606.053 C 753.418 606.053 748.256 614.342 745.371 617.265 C 742.486 620.187 751.245 625.436 751.245 625.436 C 752.551 632.997 744.64 641.532 744.64 641.532 C 736.598 631.658 726.873 643.964 726.873 643.964 C 726.873 643.964 721.586 634.686 720.267 631.374 C 718.949 628.06 725.431 625.774 727.709 624.422 C 729.986 623.07 727.591 615.144 727.591 615.144 C 727.591 615.144 725.672 608.193 723.387 601.851 C 721.103 595.51 725.907 563.946 725.907 563.946 C 725.907 563.946 726.155 558.333 726.749 556.379 C 727.046 554.967 727.105 553.515 726.925 552.085 C 726.886 551.601 726.84 551.203 726.807 550.925 C 726.775 550.646 726.749 550.527 726.749 550.527 L 726.84 550.368 L 730.104 544.192 C 730.104 544.192 756.428 553.39 754.862 557.28 Z" fill="#6c63ff"/>
  <path d="M 804.337 634.09 C 804.337 634.09 798.463 633.965 795.33 636.741 C 792.196 639.517 777.054 637.351 777.706 636.741 C 778.359 636.131 778.3 631.625 778.3 631.625 C 769.416 619.306 776.995 614.309 776.995 614.309 C 776.995 614.309 773.033 594.926 772.315 587.736 C 771.812 582.72 771.192 569.182 770.86 561.514 C 770.716 558.201 770.631 555.914 770.631 555.914 L 777.824 554.463 L 778.757 554.278 L 796.263 550.706 C 796.263 550.706 796.746 554.019 797.072 556.729 C 797.237 557.886 797.326 559.053 797.34 560.222 C 797.229 561.547 797.34 565.702 797.34 565.702 L 797.94 578.134 C 797.553 579.439 797.35 580.793 797.34 582.156 C 797.464 583.747 799.742 606.417 799.742 606.417 C 799.742 606.417 803.704 619.949 802.353 620.923 C 801.001 621.897 804.337 634.09 804.337 634.09 Z" fill="#6c63ff"/>
  <path d="M 775.272 309.817 C 774.814 311.003 774.736 313.05 774.867 315.336 C 767.514 319.832 758.277 319.657 751.095 314.886 C 750.901 311.629 750.515 308.388 749.94 305.178 C 749.94 305.178 776.838 305.794 775.272 309.817 Z" opacity="0.1"/>
  <path d="M 785.656 295.185 C 785.862 312.636 767.383 323.77 752.394 315.225 C 745.437 311.26 741.093 303.827 740.997 295.728 C 740.997 295.543 740.997 295.37 740.997 295.185 C 740.997 277.728 759.611 266.818 774.501 275.547 C 781.412 279.597 785.669 287.083 785.669 295.185 Z" fill="#cf6f80"/>
  <path d="M 766.871 344.925 C 758.256 341.526 747.173 330.293 749.94 325.045 C 750.551 323.72 750.917 322.291 751.017 320.83 L 762.811 330.678 L 770.108 336.754 L 775.656 322.421 C 776.12 325.422 776.597 327.722 776.597 327.722 C 776.597 327.722 774.946 330.061 773.986 330.188 C 773.026 330.313 779.233 349.796 766.871 344.925 Z" opacity="0.1"/>
  <polygon points="797.372 388.443 787.523 556.433 774.677 557.287 741.409 459.881 746.866 344.236 748.021 319.803 762.811 332.136 770.108 338.214 775.82 323.455 786.439 332.852 797.372 388.443" fill="#6c63ff"/>
  <path d="M 754.862 557.28 C 754.424 558.378 754.092 559.517 753.869 560.679 C 744.513 559.217 735.427 556.337 726.912 552.137 L 726.736 552.044 L 726.794 550.978 L 726.794 550.421 L 730.058 544.245 C 730.058 544.245 756.428 553.39 754.862 557.28 Z" opacity="0.1"/>
  <path d="M 778.039 560.706 C 775.65 561.121 773.24 561.401 770.82 561.547 C 770.677 558.234 770.591 555.948 770.591 555.948 L 777.824 554.463 Z" opacity="0.1"/>
  <path d="M 797.098 556.729 C 792.457 557.956 785.284 559.334 778.875 558.473 L 778.783 554.278 L 796.289 550.706 C 796.289 550.706 796.752 553.993 797.098 556.729 Z" opacity="0.1"/>
  <path d="M 778.757 559.241 C 751.996 563.88 727.486 550.58 727.486 550.58 L 727.722 546.073 C 727.722 546.073 728.328 494.988 726.644 491.072 C 724.961 487.155 723.649 467.321 724.602 464.293 C 725.554 461.265 721.122 415.54 721.122 415.54 L 720.405 396.985 L 694.107 386.137 L 705.856 361.267 C 707.442 357.78 708.807 354.195 709.942 350.532 C 711.984 344.07 721.468 337.729 721.468 337.729 C 721.468 337.729 731.194 331.393 735.038 331.632 C 738.883 331.87 743.922 326.026 743.922 326.026 C 747.642 316.397 751.01 320.725 751.01 320.725 C 751.01 321.188 751.01 320.725 750.827 322.149 C 749.522 332.719 771.936 366.117 772.256 366.714 L 772.256 366.714 L 774.417 419.503 L 776.577 486.307 Z" opacity="0.1"/>
  <path d="M 778.039 559.241 C 751.278 563.88 726.762 550.58 726.762 550.58 L 727.003 546.073 C 727.003 546.073 727.604 494.988 725.92 491.072 C 724.236 487.155 722.924 467.301 723.883 464.246 C 724.843 461.191 720.385 415.513 720.385 415.513 L 719.66 396.959 L 693.369 386.111 L 705.118 361.241 C 706.701 357.755 708.065 354.171 709.204 350.512 C 711.247 344.07 720.763 337.722 720.763 337.722 C 720.763 337.722 730.489 331.386 734.327 331.626 C 738.165 331.864 743.23 326.026 743.23 326.026 C 746.957 316.397 751.063 320.725 751.063 320.725 C 751.063 321.188 750.671 321.387 750.88 322.149 C 753.751 332.401 771.27 366.117 771.59 366.714 L 771.59 366.714 L 773.751 419.503 L 775.866 486.34 Z" fill="#fff"/>
  <path d="M 770.827 368.205 C 767.948 366.986 752.701 349.312 752.701 349.312 L 752.701 345.289 C 752.146 343.964 748.843 344.773 746.174 345.701 L 747.323 321.268 L 748.628 322.368 C 751.48 332.613 770.513 367.615 770.827 368.205 Z" opacity="0.1"/>
  <path d="M 771.551 366.747 C 768.666 365.521 753.418 347.854 753.418 347.854 L 753.418 343.825 C 752.864 342.5 749.568 343.308 746.891 344.236 L 748.02 319.829 L 749.326 320.924 C 752.205 331.155 771.231 366.151 771.551 366.747 Z" fill="#fff"/>
  <path d="M 727.486 454.883 C 727.845 454.883 746.095 452.935 746.095 452.935 C 746.095 452.935 757.146 475.002 756.421 480.363 C 755.696 485.724 754.384 490.482 749.94 489.641 C 745.495 488.798 726.018 490.303 726.018 490.303 Z" opacity="0.1"/>
  <path d="M 726.762 453.419 C 727.127 453.419 745.378 451.47 745.378 451.47 C 745.378 451.47 756.421 473.57 755.703 478.872 C 754.985 484.173 753.66 488.991 749.222 488.149 C 744.783 487.308 725.294 488.812 725.294 488.812 Z" fill="#fff"/>
  <path d="M 740.514 443.087 C 740.514 443.087 757.263 452.232 757.622 455.016 C 757.981 457.799 749.098 453.796 747.179 453.306 C 745.915 453.001 744.629 452.797 743.334 452.696 L 730.535 453.048 Z" fill="#cf6f80"/>
  <circle cx="871.16" cy="414.46" r="2.7" opacity="0.1" transform="matrix(0.652713, 0, 0, 0.662675, 197.528717, 92.903641)"/>
  <circle cx="871.16" cy="413.36" r="2.7" fill="#3f3d56" transform="matrix(0.652713, 0, 0, 0.662675, 197.528717, 92.903641)"/>
  <circle cx="876.13" cy="531.34" r="2.7" opacity="0.1" transform="matrix(0.652713, 0, 0, 0.662675, 197.528717, 92.903641)"/>
  <circle cx="876.13" cy="530.23" r="2.7" fill="#3f3d56" transform="matrix(0.652713, 0, 0, 0.662675, 197.528717, 92.903641)"/>
  <circle cx="873.86" cy="472.9" r="2.7" opacity="0.1" transform="matrix(0.652713, 0, 0, 0.662675, 197.528717, 92.903641)"/>
  <circle cx="873.86" cy="471.8" r="2.7" fill="#3f3d56" transform="matrix(0.652713, 0, 0, 0.662675, 197.528717, 92.903641)"/>
  <path d="M 808.534 452.325 C 808.534 452.325 809.735 454.154 808.534 454.976 C 807.333 455.797 808.651 457.905 808.651 457.905 C 808.651 457.905 805.656 459.681 806.974 461.291 C 808.292 462.901 807.457 470.131 807.457 470.131 L 803.854 476.221 C 803.854 476.221 804.069 480.124 804.082 485.399 C 804.082 493.629 803.606 505.2 800.969 510.475 L 801.321 553.754 C 801.321 553.754 788.704 558.44 778.143 557.008 L 776.577 487.559 C 776.577 487.559 778.862 448.177 779.704 440.622 C 780.196 436.7 780.397 432.746 780.304 428.793 C 780.304 428.793 779.945 416.971 778.737 411.491 C 778.737 411.491 777.432 387.714 777.301 381.134 C 777.243 377.986 777.406 368.801 777.588 360.067 C 777.791 350.518 778.02 341.513 778.02 341.513 L 775.637 322.368 C 775.637 322.368 778.02 322.129 778.737 323.097 C 779.059 323.402 779.409 323.675 779.782 323.912 L 779.782 323.912 C 783.901 326.735 798.43 335.416 798.43 335.416 C 798.43 335.416 806.472 338.663 808.397 343.315 C 810.322 347.967 811.66 351.267 812.594 352.593 C 813.527 353.918 814.036 360.147 814.036 360.147 C 814.036 360.147 816.803 371.611 818.964 373.553 C 821.125 375.494 822.678 387.82 822.678 387.82 L 803.586 403.062 C 803.586 403.062 801.909 428.415 801.55 429.397 C 801.191 430.377 808.534 452.325 808.534 452.325 Z" fill="#fff"/>
  <path d="M 809.259 452.325 C 809.259 452.325 810.453 454.154 809.259 454.976 C 808.064 455.797 809.369 457.905 809.369 457.905 C 809.369 457.905 806.373 459.681 807.692 461.291 C 809.01 462.901 808.175 470.131 808.175 470.131 L 804.585 476.221 C 804.585 476.221 804.8 480.124 804.82 485.399 C 804.82 493.629 804.344 505.2 801.707 510.475 L 802.066 553.754 C 802.066 553.754 789.449 558.44 778.887 557.008 L 777.328 487.559 C 777.328 487.559 779.606 448.177 780.454 440.622 C 780.947 436.7 781.146 432.746 781.048 428.793 C 781.048 428.793 780.689 416.971 779.488 411.491 C 779.488 411.491 778.183 387.714 778.046 381.134 C 777.987 377.986 778.15 368.801 778.333 360.067 C 778.535 350.518 778.763 341.513 778.763 341.513 L 775.618 322.11 C 775.618 322.11 778.763 322.11 779.488 323.097 C 779.807 323.406 780.157 323.679 780.532 323.912 L 780.532 323.912 C 784.644 326.735 799.174 335.416 799.174 335.416 C 799.174 335.416 807.196 338.663 809.154 343.315 C 811.112 347.967 812.417 351.267 813.351 352.593 C 814.284 353.918 814.794 360.147 814.794 360.147 C 814.794 360.147 817.561 371.611 819.722 373.553 C 821.882 375.494 823.442 387.82 823.442 387.82 L 804.35 403.062 C 804.35 403.062 802.673 428.415 802.307 429.397 C 801.941 430.377 809.259 452.325 809.259 452.325 Z" fill="#fff"/>
  <path d="M 786.394 347.139 L 788.124 352.241 L 779.045 361.519 C 779.246 351.97 779.475 342.964 779.475 342.964 L 776.329 323.567 C 776.329 323.567 779.475 323.567 780.199 324.555 C 780.518 324.863 780.868 325.137 781.244 325.369 L 781.244 325.369 L 788.959 347.961 Z" opacity="0.1"/>
  <path d="M 785.656 345.674 L 787.386 350.77 L 778.313 360.048 C 778.509 350.498 778.744 341.493 778.744 341.493 L 775.592 322.089 C 775.592 322.089 778.744 322.089 779.462 323.077 C 779.782 323.384 780.132 323.657 780.507 323.892 L 780.507 323.892 L 788.267 346.502 Z" fill="#fff"/>
  <path d="M 785.656 295.185 C 785.659 297.572 785.288 299.946 784.56 302.216 C 784.311 302.258 784.057 302.196 783.855 302.044 C 783.678 296.08 780.794 290.473 777.237 285.709 C 776.236 284.272 775.025 282.998 773.647 281.932 C 772.25 280.868 770.515 280.369 768.777 280.533 C 766.819 280.805 765.089 282.157 763.111 282.329 C 760.501 282.548 758.164 280.712 755.573 280.626 C 753.441 280.644 751.421 281.596 750.031 283.237 C 748.669 284.868 747.657 286.772 747.061 288.823 C 746.035 291.937 745.476 295.189 745.403 298.472 C 745.371 300.327 745.195 302.653 743.497 303.329 C 743.757 300.572 742.864 297.831 741.037 295.775 L 740.997 295.728 C 740.997 295.543 740.997 295.37 740.997 295.185 C 740.997 277.728 759.611 266.818 774.501 275.547 C 781.412 279.597 785.669 287.083 785.669 295.185 Z" opacity="0.1"/>
  <path d="M 772.602 259.182 C 769.21 257.562 765.352 257.255 761.754 258.32 C 759.946 258.864 758.242 259.745 756.408 260.189 C 752.492 261.15 747.923 260.11 744.562 262.436 C 742.695 263.761 741.572 265.855 740.527 267.896 L 737.917 272.939 C 736.494 275.702 735.058 278.512 734.464 281.554 C 733.87 284.595 734.229 288.002 736.128 290.453 C 737.506 292.229 739.555 293.349 741.056 295.026 C 742.88 297.092 743.77 299.838 743.511 302.6 C 745.208 301.938 745.378 299.598 745.416 297.743 C 745.49 294.461 746.049 291.208 747.074 288.094 C 747.67 286.042 748.682 284.14 750.044 282.508 C 751.433 280.865 753.453 279.911 755.586 279.89 C 758.197 279.983 760.54 281.819 763.125 281.594 C 765.083 281.428 766.819 280.076 768.79 279.804 C 770.528 279.637 772.265 280.136 773.66 281.202 C 775.039 282.266 776.248 283.54 777.243 284.98 C 780.807 289.751 783.698 295.33 783.868 301.315 C 784.605 301.858 785.669 301.143 786.035 300.294 C 786.401 299.446 786.413 298.452 786.877 297.644 C 787.412 296.709 788.437 296.205 789.24 295.503 C 791.276 293.72 791.786 290.719 791.707 287.995 C 791.628 285.271 791.107 282.508 791.616 279.831 C 791.923 278.194 792.614 276.65 792.993 275.026 C 793.371 273.403 793.417 271.58 792.523 270.182 C 791.217 268.135 788.47 267.723 786.074 267.531 C 783.352 267.293 780.918 267.598 779.182 265.272 C 778.364 264.06 777.447 262.92 776.44 261.866 C 776.081 261.514 772.602 259.328 772.602 259.182 Z" fill="#512e4e"/>
  <path d="M 701.639 398.927 L 694.825 386.131 L 692.664 405.878 C 692.664 405.878 693.865 414.652 693.623 415.997 C 693.382 417.342 698.545 429.403 698.545 429.403 C 698.545 429.403 715.601 460.251 722.565 461.835 L 746.062 444.764 L 739.823 436.719 C 739.823 436.719 737.662 435.864 737.12 436.719 C 737.12 436.719 725.528 416.481 724.334 415.023 C 723.14 413.565 723.368 410.63 723.368 410.63 C 723.368 410.63 721.566 408.681 722.167 406.852 C 722.767 405.023 718.721 398.688 718.721 398.688 L 722.441 395.156 Z" opacity="0.1"/>
  <path d="M 695.184 384.666 L 693.382 386.131 L 691.222 405.878 C 691.222 405.878 692.423 414.652 692.181 415.997 C 691.94 417.342 697.109 429.403 697.109 429.403 C 697.109 429.403 714.158 460.251 721.122 461.835 L 744.659 444.764 L 738.413 436.719 C 738.413 436.719 736.253 435.864 735.711 436.719 C 735.711 436.719 724.125 416.481 722.924 415.023 C 721.723 413.565 721.965 410.63 721.965 410.63 C 721.965 410.63 720.163 408.681 720.763 406.852 C 721.364 405.023 717.278 398.688 717.278 398.688 L 720.999 395.156 Z" fill="#fff"/>
  <path d="M 806.974 462.053 C 808.28 463.663 807.457 470.9 807.457 470.9 L 803.854 476.95 C 803.854 476.95 804.069 480.86 804.082 486.135 L 798.025 488.057 C 795.661 488.804 793.275 486.965 793.352 484.451 L 794.403 450.257 L 808.534 455.738 C 807.333 456.586 808.651 458.667 808.651 458.667 C 808.651 458.667 805.656 460.443 806.974 462.053 Z" opacity="0.1"/>
  <path d="M 807.692 461.324 C 808.997 462.928 808.175 470.164 808.175 470.164 L 804.585 476.221 C 804.585 476.221 804.8 480.124 804.82 485.399 L 798.652 487.354 C 796.342 488.09 794.008 486.292 794.082 483.835 L 795.134 449.522 L 809.259 455.016 C 808.051 455.864 809.369 457.944 809.369 457.944 C 809.369 457.944 806.373 459.714 807.692 461.324 Z" fill="#fff"/>
  <path d="M 812.378 445.009 C 812.378 445.009 811.419 451.232 809.017 451.596 C 806.615 451.96 805.538 461.662 803.142 461.324 C 800.747 460.987 802.333 452.298 802.418 450.616 C 802.503 448.932 799.807 441.961 801.817 440.377 C 803.828 438.793 810.225 440.377 810.225 440.377 Z" fill="#cf6f80"/>
  <path d="M 817.456 397.098 L 821.98 387.82 C 821.98 387.82 823.788 394.891 823.788 398.668 C 823.788 402.446 826.307 402.816 826.307 402.816 C 826.307 402.816 829.068 406.13 827.612 408.549 C 826.157 410.968 825.576 416.958 825.576 416.958 C 825.576 416.958 826.053 428.415 823.892 429.999 C 821.732 431.583 821.249 435.367 821.249 435.367 C 821.249 435.367 817.286 442.557 817.411 444.267 C 817.535 445.977 811.888 457.553 811.888 457.553 C 811.888 457.553 814.65 443.167 798.56 436.951 C 798.56 436.951 798.437 432.074 799.637 430.735 C 800.838 429.397 802.712 428.747 801.537 422.014 C 800.362 415.281 801.197 407.164 801.197 405.54 C 801.197 403.916 804.8 393.798 804.8 393.798 Z" opacity="0.1"/>
  <path d="M 819.467 386.495 L 823.422 387.82 C 823.422 387.82 825.23 394.891 825.23 398.668 C 825.23 402.446 827.749 402.816 827.749 402.816 C 827.749 402.816 830.51 406.13 829.055 408.549 C 827.599 410.968 827.012 416.958 827.012 416.958 C 827.012 416.958 827.495 428.415 825.335 429.999 C 823.174 431.583 822.724 435.367 822.724 435.367 C 822.724 435.367 818.762 442.557 818.886 444.267 C 819.01 445.977 813.357 457.553 813.357 457.553 C 813.357 457.553 816.119 443.167 800.029 436.951 C 800.029 436.951 799.912 432.074 801.112 430.735 C 802.313 429.397 804.187 428.747 803.012 422.014 C 801.837 415.281 802.673 407.164 802.673 405.54 C 802.673 403.916 806.276 393.798 806.276 393.798 Z" fill="#fff"/>
  <path d="M 732.082 626.96 C 732.082 626.96 738.386 622.937 742.525 625.86 C 746.663 628.782 732.082 626.96 732.082 626.96 Z" opacity="0.1"/>
  <path d="M 781.087 614.522 C 781.087 614.522 786.668 613.793 791.354 618.915 C 796.041 624.037 781.087 614.522 781.087 614.522 Z" opacity="0.1"/>
  <g opacity="0.1" transform="matrix(0.652713, 0, 0, 0.662675, 197.528717, 92.903641)">
    <path d="M922.49,322.09c-1.23,1.07-2.81,1.82-3.63,3.23-.7,1.21-.72,2.71-1.28,4s-2.19,2.36-3.33,1.54c-.26-9-4.69-17.45-10.14-24.65a25.57,25.57,0,0,0-5.49-5.69,10.75,10.75,0,0,0-7.47-2.12c-3,.41-5.64,2.45-8.67,2.71-4,.33-7.59-2.44-11.56-2.57a11.28,11.28,0,0,0-8.48,3.94,23.16,23.16,0,0,0-4.55,8.43,49.44,49.44,0,0,0-2.54,14.56c-.06,2.79-.32,6.27-2.9,7.31a13.84,13.84,0,0,1,0,2.23c2.61-1,2.87-4.53,2.93-7.33a49.44,49.44,0,0,1,2.54-14.56,23.16,23.16,0,0,1,4.55-8.43,11.32,11.32,0,0,1,8.48-3.95c4,.14,7.6,2.91,11.56,2.57,3-.25,5.66-2.29,8.67-2.7a10.75,10.75,0,0,1,7.47,2.11,25.62,25.62,0,0,1,5.49,5.7c5.45,7.2,9.88,15.62,10.14,24.65,1.14.82,2.77-.26,3.33-1.54s.58-2.78,1.28-4c.82-1.41,2.4-2.17,3.63-3.23,3.12-2.69,3.9-7.22,3.78-11.33,0-.13,0-.25,0-.38C926.1,316.17,925.15,319.8,922.49,322.09Z" transform="translate(-15.95 -18.56)"/>
    <path d="M848.66,321.39c-2.29-2.53-5.43-4.23-7.54-6.91a14.51,14.51,0,0,1-2.91-8.18,15.41,15.41,0,0,0,2.91,10.39c2.11,2.68,5.25,4.37,7.54,6.9a15,15,0,0,1,3.78,8.92A15,15,0,0,0,848.66,321.39Z" transform="translate(-15.95 -18.56)"/>
    <path d="M928.24,291.19c-.59,2.45-1.64,4.78-2.12,7.25a23.15,23.15,0,0,0-.31,5.06,19.41,19.41,0,0,1,.31-2.85c.48-2.47,1.53-4.8,2.12-7.25a12.56,12.56,0,0,0,.33-4.14A13.9,13.9,0,0,1,928.24,291.19Z" transform="translate(-15.95 -18.56)"/>
  </g>
  <ellipse cx="284.164" cy="638.438" rx="63.601" ry="10.371" fill="#6c63ff" opacity="0.1"/>
  <rect x="282.121" y="439.761" width="4.093" height="93.55" fill="#535461"/>
  <path d="M 311.937 533.032 L 311.676 537.247 L 311.317 543.211 L 311.167 545.689 L 310.801 551.654 L 310.644 554.132 L 310.285 560.096 L 306.154 627.735 C 305.788 633.776 300.856 638.485 294.894 638.484 L 273.44 638.484 C 267.461 638.487 262.519 633.749 262.181 627.689 L 258.049 560.05 L 257.69 554.086 L 257.54 551.607 L 257.167 545.643 L 257.017 543.164 L 256.659 537.2 L 256.397 532.986 C 256.206 529.576 258.869 526.701 262.232 526.684 L 306.108 526.684 C 309.488 526.703 312.154 529.608 311.937 533.032 Z" fill="#3f3d56"/>
  <polygon points="311.676 537.24 311.31 543.191 257.017 543.191 256.652 537.24 311.676 537.24" fill="#9d9cb5"/>
  <polygon points="311.16 545.67 310.801 551.62 257.533 551.62 257.167 545.67 311.16 545.67" fill="#9d9cb5"/>
  <polygon points="310.644 554.105 310.285 560.05 258.049 560.05 257.683 554.105 310.644 554.105" fill="#9d9cb5"/>
  <path d="M 250.432 474.83 C 274.269 492.337 284.197 519.719 284.197 519.719 C 284.197 519.719 255.477 518.719 231.634 501.211 C 207.79 483.703 197.849 456.341 197.849 456.341 C 197.849 456.341 226.569 457.321 250.432 474.83 Z" fill="#6c63ff"/>
  <path d="M 197.849 456.341 C 197.849 456.341 227.658 473.14 237.221 487.049 C 246.783 500.959 284.17 519.733 284.17 519.733" fill="none" stroke="#535461" stroke-miterlimit="10" stroke-width="2"/>
  <path d="M 265.79 439.562 C 278.766 449.085 284.17 463.988 284.17 463.988 C 284.17 463.988 268.505 463.445 255.562 453.922 C 242.618 444.4 237.182 429.489 237.182 429.489 C 237.182 429.489 252.821 430.033 265.79 439.562 Z" fill="#6c63ff"/>
  <path d="M 237.182 429.489 C 237.182 429.489 253.408 438.634 258.617 446.202 C 263.826 453.77 284.17 463.988 284.17 463.988" fill="none" stroke="#535461" stroke-miterlimit="10" stroke-width="2"/>
  <path d="M 303.021 463.233 C 288.119 479.859 284.966 501.589 284.966 501.589 C 284.966 501.589 305.978 496.353 320.866 479.72 C 335.754 463.087 338.92 441.364 338.92 441.364 C 338.92 441.364 317.922 446.607 303.021 463.233 Z" fill="#6c63ff"/>
  <path d="M 338.933 441.371 C 338.933 441.371 319.522 458.415 314.587 470.158 C 309.652 481.9 284.966 501.589 284.966 501.589" fill="none" stroke="#535461" stroke-miterlimit="10" stroke-width="2"/>
</svg>